<?xml version="1.0" encoding="UTF-8" standalone="no"?>
<svg
   xmlns:dc="http://purl.org/dc/elements/1.1/"
   xmlns:cc="http://creativecommons.org/ns#"
   xmlns:rdf="http://www.w3.org/1999/02/22-rdf-syntax-ns#"
   xmlns:svg="http://www.w3.org/2000/svg"
   xmlns="http://www.w3.org/2000/svg"
   xmlns:sodipodi="http://sodipodi.sourceforge.net/DTD/sodipodi-0.dtd"
   xmlns:inkscape="http://www.inkscape.org/namespaces/inkscape"
   sodipodi:docname="raw.svg"
   inkscape:version="1.0rc1 (09960d6, 2020-04-09)"
   id="svg8"
   version="1.1"
   viewBox="0 0 132.29166 132.29167"
   height="500"
   width="500">
  <defs
     id="defs2" />
  <sodipodi:namedview
     inkscape:window-maximized="1"
     inkscape:window-y="23"
     inkscape:window-x="0"
     inkscape:window-height="1035"
     inkscape:window-width="1920"
     units="px"
     showgrid="true"
     inkscape:document-rotation="0"
     inkscape:current-layer="layer1"
     inkscape:document-units="px"
     inkscape:cy="272.53674"
     inkscape:cx="202.72731"
     inkscape:zoom="1.5631553"
     inkscape:pageshadow="2"
     inkscape:pageopacity="0.0"
     borderopacity="1.0"
     bordercolor="#666666"
     pagecolor="#ffffff"
     id="base">
    <inkscape:grid
       id="grid875"
       type="xygrid" />
  </sodipodi:namedview>
  <metadata
     id="metadata5">
    <rdf:RDF>
      <cc:Work
         rdf:about="">
        <dc:format>image/svg+xml</dc:format>
        <dc:type
           rdf:resource="http://purl.org/dc/dcmitype/StillImage" />
        <dc:title></dc:title>
      </cc:Work>
    </rdf:RDF>
  </metadata>
  <g
     id="layer1"
     inkscape:groupmode="layer"
     inkscape:label="Layer 1">
    <g
       style="fill:#000000"
       id="g919"
       transform="matrix(2.3543039,0,0,2.3543039,-19.127934,-82.3169)">
      <path
         id="path915"
         style="fill:#000000;stroke:none;stroke-width:0.999999px;stroke-linecap:butt;stroke-linejoin:miter;stroke-opacity:1"
         d="m 160,266 -2,2 -1,2 8,9 17,11 13,16 v 14 l 2,3 h 6 l 3,-5 v -3 l -20,-26 -6,-5 -11,-9 1,-5 z m 39,43 4,6 h -3 l -3,1 v -6 z"
         transform="scale(0.26458333)"
         inkscape:connector-curvature="0" />
      <path
         style="fill:#000000;fill-opacity:1;stroke:none;stroke-width:0.264583px;stroke-linecap:butt;stroke-linejoin:miter;stroke-opacity:1"
         d="m 53.974999,59.531249 -10.31875,9.260417 -1.058333,3.175 0.529167,1.058333 h 1.058333 l 1.322917,-2.645833 10.847916,-8.466667 v -1.058333 l -1.322916,-1.322917 z"
         id="path917"
         inkscape:connector-curvature="0"
         sodipodi:nodetypes="cccccccccc" />
    </g>
    <g
       transform="matrix(2.3543039,0,0,2.3543039,-84.21544,-82.3169)"
       id="g925"
       style="fill:#000000">
      <path
         inkscape:connector-curvature="0"
         transform="scale(0.26458333)"
         d="m 160,266 -2,2 -1,2 8,9 17,11 13,16 v 14 l 2,3 h 6 l 3,-5 v -3 l -20,-26 -6,-5 -11,-9 1,-5 z m 39,43 4,6 h -3 l -3,1 v -6 z"
         style="fill:#000000;stroke:none;stroke-width:0.999999px;stroke-linecap:butt;stroke-linejoin:miter;stroke-opacity:1"
         id="path921" />
      <path
         sodipodi:nodetypes="cccccccccc"
         inkscape:connector-curvature="0"
         id="path923"
         d="m 53.974999,59.531249 -10.31875,9.260417 -1.058333,3.175 0.529167,1.058333 h 1.058333 l 1.322917,-2.645833 10.847916,-8.466667 v -1.058333 l -1.322916,-1.322917 z"
         style="fill:#000000;fill-opacity:1;stroke:none;stroke-width:0.264583px;stroke-linecap:butt;stroke-linejoin:miter;stroke-opacity:1" />
    </g>
    <path
       sodipodi:nodetypes="ccccccccc"
       inkscape:connector-curvature="0"
       id="path879"
       d="m 123.56041,72.495833 7.14375,-16.66875 -15.08124,-3.968751 H 38.629168 l -15.875001,3.968751 1.587501,15.874998 h 31.749999 l 47.625003,2.38125 z"
       style="fill:#ffcc00;fill-opacity:1;stroke:none;stroke-width:0.793749px;stroke-linecap:butt;stroke-linejoin:miter;stroke-opacity:1" />
    <path
       inkscape:connector-curvature="0"
       id="path896"
       d="M 46.566667,71.702081 45.772918,51.858332 h -7.14375 l -7.14375,1.587501 0.793749,18.256248 z"
       style="fill:#333333;fill-opacity:1;stroke:none;stroke-width:0.793749px;stroke-linecap:butt;stroke-linejoin:miter;stroke-opacity:1" />
    <path
       inkscape:connector-curvature="0"
       d="m 105.83281,51.858332 -2.46651,22.207951 0.35037,0.01705 14.46888,-1.158066 4.58112,-9.160684 v -10.02574 l -7.14375,-1.880505 z"
       style="fill:#333333;stroke:none;stroke-width:0.793749px;stroke-linecap:butt;stroke-linejoin:miter;stroke-opacity:1"
       id="path898" />
    <path
       inkscape:connector-curvature="0"
       id="path903"
       d="M 105.30417,61.383332 H 77.522915 l -7.14375,-3.174999 H 42.597919 v -0.793749 h 7.937499 l 3.174999,-2.38125 h 13.493748 l 8.73125,3.968748 h 29.368755 z"
       style="fill:#333333;stroke:none;stroke-width:0.793749px;stroke-linecap:butt;stroke-linejoin:miter;stroke-opacity:1" />
    <g
       transform="matrix(3.0000001,0,0,3.0000001,-122.50209,-126.73541)"
       id="g907">
      <path
         inkscape:connector-curvature="0"
         id="path891"
         style="fill:#333333;stroke:none;stroke-width:0.999999px;stroke-linecap:butt;stroke-linejoin:miter;stroke-opacity:1"
         d="m 160,266 -2,2 -1,2 8,9 17,11 13,16 v 14 l 2,3 h 6 l 3,-5 v -3 l -20,-26 -6,-5 -11,-9 1,-5 z m 39,43 4,6 h -3 l -3,1 v -6 z"
         transform="scale(0.26458333)" />
      <path
         style="fill:#ffcc00;fill-opacity:1;stroke:none;stroke-width:0.264583px;stroke-linecap:butt;stroke-linejoin:miter;stroke-opacity:1"
         d="m 53.974999,59.531249 -10.31875,9.260417 -1.058333,3.175 0.529167,1.058333 h 1.058333 l 1.322917,-2.645833 10.847916,-8.466667 v -1.058333 l -1.322916,-1.322917 z"
         id="path889"
         inkscape:connector-curvature="0"
         sodipodi:nodetypes="cccccccccc" />
    </g>
    <g
       transform="matrix(3.0000001,0,0,3.0000001,-44.714581,-126.73541)"
       id="g913">
      <path
         inkscape:connector-curvature="0"
         transform="scale(0.26458333)"
         d="m 160,266 -2,2 -1,2 8,9 17,11 13,16 v 14 l 2,3 h 6 l 3,-5 v -3 l -20,-26 -6,-5 -11,-9 1,-5 z m 39,43 4,6 h -3 l -3,1 v -6 z"
         style="fill:#333333;stroke:none;stroke-width:0.999999px;stroke-linecap:butt;stroke-linejoin:miter;stroke-opacity:1"
         id="path909" />
      <path
         sodipodi:nodetypes="cccccccccc"
         inkscape:connector-curvature="0"
         id="path911"
         d="m 53.974999,59.531249 -10.31875,9.260417 -1.058333,3.175 0.529167,1.058333 h 1.058333 l 1.322917,-2.645833 10.847916,-8.466667 v -1.058333 l -1.322916,-1.322917 z"
         style="fill:#ffcc00;fill-opacity:1;stroke:none;stroke-width:0.264583px;stroke-linecap:butt;stroke-linejoin:miter;stroke-opacity:1" />
    </g>
  </g>
</svg>
